<svg xmlns="http://www.w3.org/2000/svg" xmlns:xlink="http://www.w3.org/1999/xlink" width="144" height="144" viewBox="0 0 144 144">
  <defs>
    <clipPath id="clip-see_password_icon">
      <rect width="144" height="144"/>
    </clipPath>
  </defs>
  <g id="see_password_icon" clip-path="url(#clip-see_password_icon)">
    <g id="view" transform="translate(0 -56.176)">
      <g id="Group_285" data-name="Group 285" transform="translate(48.826 105.35)">
        <g id="Group_284" data-name="Group 284" transform="translate(0 0)">
          <path id="Path_2850" data-name="Path 2850" d="M179.59,156.416a23.174,23.174,0,1,0,23.174,23.174A23.191,23.191,0,0,0,179.59,156.416Zm-1.758,16.3a5.321,5.321,0,0,0-5.274,5.274h-7.671a13.1,13.1,0,0,1,12.946-12.946Z" transform="translate(-156.416 -156.416)" fill="#4c3e79"/>
        </g>
      </g>
      <g id="Group_287" data-name="Group 287" transform="translate(0 82.176)">
        <g id="Group_286" data-name="Group 286" transform="translate(0 0)">
          <path id="Path_2851" data-name="Path 2851" d="M142.322,123.73c-7.831-9.749-35.8-41.554-70.322-41.554S9.509,113.981,1.678,123.73a7.688,7.688,0,0,0,0,9.589c7.831,9.749,35.8,41.554,70.322,41.554s62.491-31.8,70.322-41.554A7.688,7.688,0,0,0,142.322,123.73ZM72,162.087a33.563,33.563,0,1,1,33.563-33.563A33.559,33.559,0,0,1,72,162.087Z" transform="translate(0 -82.176)" fill="#4c3e79"/>
        </g>
      </g>
    </g>
  </g>
</svg>
